<svg class="svg-icon" style="width: 1em; height: 1em;vertical-align: middle;fill: currentColor;overflow: hidden;" viewBox="0 0 1024 1024" version="1.1" xmlns="http://www.w3.org/2000/svg"><path d="M326.656 508.928c-6.144 1.024-12.288 1.024-19.456 1.024-6.144 0-12.288 0-19.456-1.024-6.144-1.024-11.264 4.096-11.264 10.24V798.72c0 11.264 9.216 20.48 20.48 20.48h20.48c11.264 0 20.48-9.216 20.48-20.48V519.168c0-7.168-5.12-11.264-11.264-10.24z m204.8 215.04c-6.144 1.024-12.288 1.024-19.456 1.024-6.144 0-12.288 0-19.456-1.024-6.144-1.024-11.264 4.096-11.264 10.24V798.72c0 11.264 9.216 20.48 20.48 20.48h20.48c11.264 0 20.48-9.216 20.48-20.48v-64.512c0-7.168-5.12-11.264-11.264-10.24z m204.8-153.6c-6.144 1.024-12.288 1.024-19.456 1.024-6.144 0-12.288 0-19.456-1.024-6.144-1.024-11.264 4.096-11.264 10.24V798.72c0 11.264 9.216 20.48 20.48 20.48h20.48c11.264 0 20.48-9.216 20.48-20.48V580.608c0-7.168-5.12-11.264-11.264-10.24zM337.92 314.368V225.28c0-11.264-9.216-20.48-20.48-20.48h-20.48c-11.264 0-20.48 9.216-20.48 20.48v89.088c-24.576 11.264-40.96 35.84-40.96 64.512 0 39.936 31.744 71.68 71.68 71.68s71.68-31.744 71.68-71.68c0-28.672-16.384-53.248-40.96-64.512z m204.8 215.04V225.28c0-11.264-9.216-20.48-20.48-20.48h-20.48c-11.264 0-20.48 9.216-20.48 20.48v304.128c-24.576 11.264-40.96 35.84-40.96 64.512 0 39.936 31.744 71.68 71.68 71.68s71.68-31.744 71.68-71.68c0-28.672-16.384-53.248-40.96-64.512z m204.8-153.6V225.28c0-11.264-9.216-20.48-20.48-20.48h-20.48c-11.264 0-20.48 9.216-20.48 20.48v150.528c-24.576 11.264-40.96 35.84-40.96 64.512 0 39.936 31.744 71.68 71.68 71.68s71.68-31.744 71.68-71.68c0-28.672-16.384-53.248-40.96-64.512z"  /></svg>